<?xml version="1.0" encoding="UTF-8" standalone="no"?>
<!-- Generator: Adobe Illustrator 16.0.0, SVG Export Plug-In . SVG Version: 6.00 Build 0)  -->

<svg
   version="1.1"
   id="Layer_1"
   x="0px"
   y="0px"
   width="240.94501"
   height="26"
   viewBox="0 0 240.945 26.000001"
   enable-background="new 0 0 240.945 155.905"
   xml:space="preserve"
   xmlns:xlink="http://www.w3.org/1999/xlink"
   xmlns="http://www.w3.org/2000/svg"
   xmlns:svg="http://www.w3.org/2000/svg"><defs
   id="defs48"><defs
     id="defs2"><rect
       id="SVGID_3_"
       x="-1.7309999"
       y="26.958"
       width="240.72"
       height="155.759" /></defs><clipPath
     id="SVGID_4_">
			<use
   xlink:href="#SVGID_3_"
   overflow="visible"
   id="use2" />
		</clipPath></defs>
<path
   clip-path="url(#SVGID_4_)"
   fill="#733822"
   d="m 33.385,42.168 c -0.626,-0.749 -1.522,-1.124 -2.689,-1.124 -1.252,0 -2.197,0.369 -2.836,1.105 -0.602,0.688 -0.902,1.645 -0.902,2.873 0,1.129 0.344,2.047 1.031,2.753 0.688,0.706 1.596,1.059 2.726,1.059 1.142,0 2.032,-0.375 2.67,-1.124 0.589,-0.7 0.884,-1.614 0.884,-2.744 0,-1.165 -0.295,-2.098 -0.884,-2.798 z m 0.645,6.187 c -0.823,0.896 -1.964,1.344 -3.425,1.344 -1.584,0 -2.799,-0.602 -3.646,-1.805 v 1.621 H 26.02 V 37.03 h 0.939 v 4.88 c 0.798,-1.166 2.02,-1.75 3.665,-1.75 1.474,0 2.615,0.467 3.425,1.4 0.761,0.859 1.142,2.001 1.142,3.425 -0.001,1.412 -0.388,2.536 -1.161,3.37"
   id="path2"
   transform="translate(1.8996301,-30)" /><path
   clip-path="url(#SVGID_4_)"
   fill="#733822"
   d="m 38.155,42.647 c -0.541,0.847 -0.811,1.934 -0.811,3.259 v 3.609 H 36.405 V 40.51 h 0.939 v 1.528 c 0.184,-0.27 0.417,-0.521 0.7,-0.755 0.811,-0.651 1.885,-0.976 3.223,-0.976 v 0.865 c -1.436,0.001 -2.474,0.493 -3.112,1.475 z"
   id="path3"
   transform="translate(1.8996301,-30)" /><path
   clip-path="url(#SVGID_4_)"
   fill="#733822"
   d="m 42.703,38.89 c -0.196,0 -0.344,-0.123 -0.442,-0.368 v -1.289 c 0.11,-0.246 0.258,-0.369 0.442,-0.369 0.147,0 0.313,0.111 0.497,0.332 v 1.363 c -0.172,0.221 -0.337,0.331 -0.497,0.331 z"
   id="path4"
   transform="translate(1.8996301,-30)" /><rect
   x="42.261002"
   y="40.382"
   clip-path="url(#SVGID_4_)"
   fill="#733822"
   width="0.93900001"
   height="9.1339998"
   id="rect4"
   transform="translate(1.8996301,-30)" /><path
   clip-path="url(#SVGID_4_)"
   fill="#733822"
   d="m 51.487,42.26 c -0.675,-0.725 -1.602,-1.087 -2.781,-1.087 -1.129,0 -2.014,0.387 -2.652,1.161 -0.589,0.7 -0.884,1.608 -0.884,2.725 0,1.117 0.301,2.032 0.902,2.744 0.638,0.786 1.522,1.179 2.652,1.179 1.24,0 2.185,-0.362 2.836,-1.087 0.626,-0.675 0.939,-1.621 0.939,-2.836 10e-4,-1.142 -0.336,-2.075 -1.012,-2.799 z m 0.994,10.349 v -4.457 c -0.761,1.13 -2.013,1.694 -3.756,1.694 -1.375,0 -2.48,-0.473 -3.315,-1.418 -0.786,-0.884 -1.179,-2.013 -1.179,-3.388 0,-1.351 0.408,-2.477 1.225,-3.379 0.817,-0.902 1.931,-1.354 3.342,-1.354 1.658,0 2.885,0.589 3.683,1.768 V 40.51 h 0.939 v 12.099 h -0.939"
   id="path5"
   transform="translate(1.8996301,-30)" /><path
   clip-path="url(#SVGID_4_)"
   fill="#733822"
   d="m 62.26,49.534 v -1.252 c -0.725,0.958 -1.823,1.437 -3.296,1.437 -1.154,0 -2.069,-0.276 -2.744,-0.829 -0.712,-0.602 -1.068,-1.442 -1.068,-2.523 V 40.53 h 0.939 v 5.819 c 0,1.67 0.958,2.505 2.873,2.505 1.105,0 1.939,-0.319 2.504,-0.958 0.528,-0.602 0.792,-1.436 0.792,-2.504 v -4.861 h 0.939 v 9.005 H 62.26 Z"
   id="path6"
   transform="translate(1.8996301,-30)" /><path
   clip-path="url(#SVGID_4_)"
   fill="#733822"
   d="m 68.908,41.173 c -1.043,0 -1.899,0.295 -2.569,0.884 -0.669,0.589 -1.059,1.399 -1.169,2.431 h 7.366 c -0.062,-1.031 -0.42,-1.841 -1.077,-2.431 -0.657,-0.59 -1.507,-0.884 -2.551,-0.884 z m -3.757,4.181 c 0.123,2.333 1.356,3.499 3.701,3.499 1.78,0 2.953,-0.731 3.518,-2.191 h 0.958 c -0.356,1.154 -0.964,1.964 -1.823,2.431 -0.749,0.417 -1.645,0.626 -2.688,0.626 -1.51,0 -2.664,-0.436 -3.462,-1.308 -0.749,-0.81 -1.124,-1.934 -1.124,-3.37 0,-1.412 0.427,-2.554 1.28,-3.425 0.854,-0.872 1.986,-1.308 3.397,-1.308 1.412,0 2.542,0.396 3.389,1.188 0.847,0.792 1.271,1.857 1.271,3.195 v 0.645 l -8.417,0.018"
   id="path7"
   transform="translate(1.8996301,-30)" /><path
   clip-path="url(#SVGID_4_)"
   fill="#6d86a6"
   d="m 87.802,42.131 c -0.663,-0.725 -1.602,-1.087 -2.817,-1.087 -1.129,0 -2.02,0.387 -2.67,1.161 -0.614,0.724 -0.92,1.645 -0.92,2.762 0,1.129 0.301,2.044 0.902,2.744 0.638,0.761 1.535,1.142 2.688,1.142 1.142,0 2.056,-0.381 2.744,-1.142 0.675,-0.724 1.013,-1.639 1.013,-2.744 -0.001,-1.203 -0.314,-2.148 -0.94,-2.836 z m 0.939,7.385 v -1.621 c -0.823,1.215 -2.069,1.823 -3.738,1.823 -1.424,0 -2.547,-0.46 -3.37,-1.381 -0.773,-0.872 -1.16,-1.995 -1.16,-3.37 0,-1.4 0.393,-2.535 1.179,-3.407 0.822,-0.921 1.964,-1.381 3.425,-1.381 1.645,0 2.866,0.583 3.665,1.75 V 37.03 h 0.939 v 12.485 h -0.94"
   id="path8"
   transform="translate(1.8996301,-30)" /><path
   clip-path="url(#SVGID_4_)"
   fill="#6d86a6"
   d="m 92.203,39.442 c -0.307,0 -0.46,-0.135 -0.46,-0.405 v -1.51 c 0,-0.258 0.153,-0.387 0.46,-0.387 0.319,0 0.479,0.129 0.479,0.387 v 1.51 c 0,0.271 -0.16,0.405 -0.479,0.405 z"
   id="path9"
   transform="translate(1.8996301,-30)" /><path
   clip-path="url(#SVGID_4_)"
   fill="#6d86a6"
   d="m 106.327,49.516 v -5.875 c 0,-0.798 -0.258,-1.418 -0.773,-1.86 -0.503,-0.405 -1.191,-0.608 -2.062,-0.608 -1.031,0 -1.845,0.304 -2.44,0.912 -0.596,0.608 -0.893,1.403 -0.893,2.385 v 5.045 H 99.22 V 40.51 h 0.939 v 1.234 c 0.712,-0.958 1.817,-1.437 3.314,-1.437 1.093,0 1.983,0.258 2.67,0.773 0.749,0.565 1.123,1.363 1.123,2.394 v 6.04 h -0.939 z"
   id="path10"
   transform="translate(1.8996301,-30)" /><polygon
   clip-path="url(#SVGID_4_)"
   fill="#6d86a6"
   points="108.206,41.781 108.206,40.916 110.028,40.916 110.028,38.209 110.968,38.209 110.968,40.916 112.828,40.916 112.828,41.781 110.968,41.781 110.968,49.516 110.065,49.516 110.028,41.781 "
   id="polygon10"
   transform="translate(1.8996301,-30)" /><path
   clip-path="url(#SVGID_4_)"
   fill="#6d86a6"
   d="m 117.818,41.173 c -1.044,0 -1.9,0.295 -2.569,0.884 -0.669,0.589 -1.059,1.399 -1.169,2.431 h 7.366 c -0.062,-1.031 -0.421,-1.841 -1.078,-2.431 -0.656,-0.589 -1.506,-0.884 -2.55,-0.884 z m -3.756,4.181 c 0.123,2.333 1.356,3.499 3.702,3.499 1.78,0 2.953,-0.731 3.517,-2.191 h 0.958 c -0.356,1.154 -0.964,1.964 -1.823,2.431 -0.749,0.417 -1.646,0.626 -2.689,0.626 -1.51,0 -2.664,-0.436 -3.462,-1.308 -0.749,-0.81 -1.124,-1.934 -1.124,-3.37 0,-1.412 0.427,-2.554 1.28,-3.425 0.854,-0.872 1.986,-1.308 3.398,-1.308 1.412,0 2.541,0.396 3.389,1.188 0.847,0.792 1.271,1.857 1.271,3.195 v 0.645 l -8.417,0.018"
   id="path11"
   transform="translate(1.8996301,-30)" /><path
   clip-path="url(#SVGID_4_)"
   fill="#6d86a6"
   d="m 130.506,49.516 v -5.875 c 0,-0.798 -0.258,-1.418 -0.773,-1.86 -0.503,-0.405 -1.19,-0.608 -2.062,-0.608 -1.031,0 -1.844,0.304 -2.439,0.912 -0.596,0.608 -0.894,1.403 -0.894,2.385 v 5.045 H 123.4 V 40.51 h 0.938 v 1.234 c 0.712,-0.958 1.817,-1.437 3.314,-1.437 1.093,0 1.983,0.258 2.671,0.773 0.749,0.565 1.123,1.363 1.123,2.394 v 6.04 h -0.94 z"
   id="path12"
   transform="translate(1.8996301,-30)" /><polygon
   clip-path="url(#SVGID_4_)"
   fill="#6d86a6"
   points="132.385,41.781 132.385,40.916 134.208,40.916 134.208,38.209 135.146,38.209 135.146,40.916 137.007,40.916 137.007,41.781 135.146,41.781 135.146,49.516 134.244,49.516 134.208,41.781 "
   id="polygon12"
   transform="translate(1.8996301,-30)" /><path
   clip-path="url(#SVGID_4_)"
   fill="#6d86a6"
   d="m 138.352,38.89 c -0.197,0 -0.344,-0.123 -0.442,-0.368 v -1.289 c 0.11,-0.246 0.258,-0.369 0.442,-0.369 0.146,0 0.312,0.111 0.497,0.332 v 1.363 c -0.172,0.221 -0.338,0.331 -0.497,0.331 z"
   id="path13"
   transform="translate(1.8996301,-30)" /><rect
   x="137.909"
   y="40.382"
   clip-path="url(#SVGID_4_)"
   fill="#6d86a6"
   width="0.93900001"
   height="9.1339998"
   id="rect13"
   transform="translate(1.8996301,-30)" /><path
   clip-path="url(#SVGID_4_)"
   fill="#6d86a6"
   d="m 147.467,42.242 c -0.676,-0.712 -1.614,-1.068 -2.817,-1.068 -1.179,0 -2.112,0.347 -2.8,1.041 -0.688,0.694 -1.031,1.63 -1.031,2.809 0,1.166 0.348,2.096 1.041,2.79 0.693,0.693 1.623,1.041 2.79,1.041 1.166,0 2.096,-0.347 2.789,-1.041 0.694,-0.694 1.041,-1.624 1.041,-2.79 -10e-4,-1.156 -0.338,-2.083 -1.013,-2.782 z m -2.836,7.476 c -1.461,0 -2.618,-0.436 -3.472,-1.308 -0.854,-0.872 -1.279,-2.001 -1.279,-3.388 0,-1.437 0.438,-2.581 1.316,-3.435 0.878,-0.853 2.035,-1.28 3.472,-1.28 1.436,0 2.587,0.427 3.452,1.28 0.866,0.854 1.299,1.998 1.299,3.435 0,1.437 -0.439,2.578 -1.317,3.425 -0.877,0.847 -2.035,1.271 -3.471,1.271"
   id="path14"
   transform="translate(1.8996301,-30)" /><path
   clip-path="url(#SVGID_4_)"
   fill="#6d86a6"
   d="m 157.559,49.516 v -5.875 c 0,-0.798 -0.258,-1.418 -0.773,-1.86 -0.504,-0.405 -1.191,-0.608 -2.062,-0.608 -1.031,0 -1.845,0.304 -2.44,0.912 -0.596,0.608 -0.894,1.403 -0.894,2.385 v 5.045 h -0.938 V 40.51 h 0.938 v 1.234 c 0.713,-0.958 1.817,-1.437 3.315,-1.437 1.093,0 1.982,0.258 2.67,0.773 0.749,0.565 1.123,1.363 1.123,2.394 v 6.04 h -0.939 z"
   id="path15"
   transform="translate(1.8996301,-30)" /><path
   clip-path="url(#SVGID_4_)"
   fill="#6d86a6"
   d="m 163.911,49.755 c -2.737,0 -4.106,-1.228 -4.106,-3.683 h 0.976 c 0,0.97 0.252,1.676 0.756,2.118 0.503,0.442 1.301,0.663 2.394,0.663 0.736,0 1.345,-0.117 1.823,-0.35 0.589,-0.307 0.884,-0.761 0.884,-1.363 0,-0.736 -0.614,-1.246 -1.842,-1.528 -0.086,-0.025 -0.699,-0.123 -1.841,-0.295 -1.842,-0.282 -2.763,-1.08 -2.763,-2.394 0,-0.859 0.368,-1.528 1.105,-2.007 0.626,-0.417 1.393,-0.626 2.302,-0.626 2.64,0 3.959,1.093 3.959,3.278 h -0.994 c 0,-0.834 -0.228,-1.439 -0.682,-1.813 -0.454,-0.374 -1.185,-0.562 -2.191,-0.562 -0.675,0 -1.246,0.135 -1.713,0.405 -0.54,0.319 -0.81,0.761 -0.81,1.326 0,0.737 0.602,1.209 1.805,1.418 0.318,0.061 0.97,0.178 1.951,0.35 1.793,0.307 2.689,1.124 2.689,2.449 0,0.933 -0.405,1.626 -1.216,2.081 -0.65,0.355 -1.479,0.533 -2.486,0.533 z"
   id="path16"
   transform="translate(1.8996301,-30)" /><polygon
   clip-path="url(#SVGID_4_)"
   fill="#3d4025"
   points="198.893,49.516 198.046,49.516 193.7,40.529 194.786,40.529 198.451,48.319 201.876,40.529 202.907,40.529 "
   id="polygon16"
   transform="translate(1.8996301,-30)" /><path
   clip-path="url(#SVGID_4_)"
   fill="#3d4025"
   d="m 208.893,37.84 -2.137,2.173 c -0.122,0.098 -0.239,0.147 -0.35,0.147 -0.319,0 -0.479,-0.141 -0.479,-0.423 0,-0.11 0.049,-0.215 0.147,-0.313 l 2.08,-2.155 c 0.185,-0.208 0.412,-0.233 0.682,-0.074 0.11,0.099 0.166,0.209 0.166,0.332 10e-4,0.086 -0.036,0.191 -0.109,0.313 z"
   id="path17"
   transform="translate(1.8996301,-30)" /><path
   clip-path="url(#SVGID_4_)"
   fill="#3d4025"
   d="m 207.512,41.044 c -1.057,0 -1.916,0.301 -2.578,0.903 -0.663,0.601 -1.05,1.424 -1.161,2.467 h 7.366 c -0.061,-1.043 -0.417,-1.866 -1.067,-2.467 -0.652,-0.601 -1.505,-0.903 -2.56,-0.903 z m -3.757,4.254 c 0.122,2.37 1.356,3.555 3.701,3.555 1.78,0 2.952,-0.743 3.518,-2.229 h 0.957 c -0.355,1.167 -0.964,1.989 -1.823,2.468 -0.748,0.417 -1.645,0.626 -2.688,0.626 -1.51,0 -2.664,-0.442 -3.462,-1.326 -0.749,-0.823 -1.123,-1.964 -1.123,-3.425 0,-1.424 0.427,-2.578 1.279,-3.462 0.854,-0.884 1.986,-1.326 3.398,-1.326 1.411,0 2.541,0.399 3.388,1.197 0.848,0.798 1.271,1.878 1.271,3.241 v 0.663 l -8.416,0.018"
   id="path18"
   transform="translate(1.8996301,-30)" /><path
   clip-path="url(#SVGID_4_)"
   fill="#3d4025"
   d="m 217.18,41.173 c -1.044,0 -1.9,0.295 -2.569,0.884 -0.669,0.589 -1.059,1.399 -1.169,2.431 h 7.365 c -0.061,-1.031 -0.42,-1.841 -1.077,-2.431 -0.657,-0.589 -1.507,-0.884 -2.55,-0.884 z m -3.757,4.181 c 0.122,2.333 1.356,3.499 3.701,3.499 1.78,0 2.952,-0.731 3.518,-2.191 h 0.957 c -0.355,1.154 -0.964,1.964 -1.823,2.431 -0.748,0.417 -1.645,0.626 -2.688,0.626 -1.51,0 -2.664,-0.436 -3.462,-1.308 -0.749,-0.81 -1.123,-1.934 -1.123,-3.37 0,-1.412 0.427,-2.554 1.279,-3.425 0.854,-0.872 1.986,-1.308 3.398,-1.308 1.411,0 2.541,0.396 3.388,1.188 0.848,0.792 1.271,1.857 1.271,3.195 v 0.645 l -8.416,0.018"
   id="path19"
   transform="translate(1.8996301,-30)" /><path
   clip-path="url(#SVGID_4_)"
   fill="#3d4025"
   d="m 226.553,49.755 c -2.738,0 -4.106,-1.228 -4.106,-3.683 h 0.976 c 0,0.97 0.252,1.676 0.755,2.118 0.504,0.442 1.302,0.663 2.395,0.663 0.736,0 1.344,-0.117 1.823,-0.35 0.589,-0.307 0.884,-0.761 0.884,-1.363 0,-0.736 -0.614,-1.246 -1.842,-1.528 -0.086,-0.025 -0.7,-0.123 -1.842,-0.295 -1.841,-0.282 -2.762,-1.08 -2.762,-2.394 0,-0.859 0.368,-1.528 1.104,-2.007 0.626,-0.417 1.394,-0.626 2.302,-0.626 2.64,0 3.96,1.093 3.96,3.278 h -0.995 c 0,-0.834 -0.227,-1.439 -0.682,-1.813 -0.454,-0.375 -1.185,-0.562 -2.19,-0.562 -0.676,0 -1.247,0.135 -1.713,0.405 -0.54,0.319 -0.811,0.761 -0.811,1.326 0,0.737 0.602,1.209 1.805,1.418 0.319,0.061 0.97,0.178 1.952,0.35 1.792,0.307 2.688,1.124 2.688,2.449 0,0.933 -0.405,1.626 -1.215,2.081 -0.651,0.355 -1.479,0.533 -2.486,0.533 z"
   id="path20"
   transform="translate(1.8996301,-30)" /><g
   clip-path="url(#SVGID_4_)"
   id="g36"
   transform="translate(1.8996301,-30)">
			<polygon
   fill="#6d86a6"
   points="94.587,49.516 97.657,49.516 97.66,39.509 94.584,39.509 "
   id="polygon36" />
			<rect
   x="94.588997"
   y="37.029999"
   fill="#b4c4d9"
   width="3.0710001"
   height="2.4790001"
   id="rect36" />
		</g><g
   clip-path="url(#SVGID_4_)"
   id="g43"
   transform="translate(1.8996301,-30)">
			<rect
   x="186.20599"
   y="47.041"
   fill="#3d4025"
   width="7.5279999"
   height="2.4790001"
   id="rect37" />
			<rect
   x="186.20599"
   y="41.946999"
   fill="#3d4025"
   width="6.7940001"
   height="2.523"
   id="rect38" />
			<rect
   x="186.20599"
   y="37.035"
   fill="#3d4025"
   width="7.5279999"
   height="2.4790001"
   id="rect39" />
			<path
   fill="#3d4025"
   d="m 179.875,42.632 c -0.093,0.019 -0.188,0.029 -0.284,0.029 -0.011,0 -0.02,0 -0.029,0 h -4.119 v 1.809 h 3.073 l 3.415,5.049 h 3.062 l -3.62,-5.051 c 0.168,-0.059 0.329,-0.132 0.483,-0.22 0.312,-0.174 0.603,-0.404 0.874,-0.637 0.271,-0.233 0.489,-0.518 0.652,-0.857 0.014,-0.031 0.026,-0.062 0.041,-0.093 0.138,-0.312 0.236,-0.646 0.291,-0.997 0.028,-0.193 0.044,-0.39 0.044,-0.591 0,-0.279 -0.03,-0.553 -0.089,-0.819 -0.055,-0.253 -0.135,-0.496 -0.232,-0.728 -0.109,-0.253 -0.244,-0.492 -0.408,-0.719 -0.31,-0.433 -0.692,-0.796 -1.148,-1.089 -0.455,-0.293 -0.96,-0.495 -1.514,-0.604 -0.277,-0.055 -0.562,-0.083 -0.853,-0.083 l -4.072,0.002 v 2.48 l 4.115,-10e-4 c 0.104,0 0.212,0.01 0.312,0.032 0.204,0.035 0.397,0.122 0.571,0.235 0.176,0.112 0.322,0.253 0.444,0.421 0.121,0.168 0.204,0.357 0.252,0.565 0.022,0.104 0.033,0.212 0.033,0.324 0,0.111 -0.011,0.219 -0.032,0.324 -0.047,0.208 -0.131,0.398 -0.251,0.567 -0.123,0.169 -0.267,0.309 -0.442,0.422 -0.173,0.113 -0.363,0.19 -0.569,0.23 z"
   id="path39" />
			<rect
   x="186.20599"
   y="44.470001"
   fill="#9ea660"
   width="3.076"
   height="2.5710001"
   id="rect40" />
			<rect
   x="186.20599"
   y="39.513"
   fill="#9ea660"
   width="3.076"
   height="2.434"
   id="rect41" />
			<rect
   x="175.442"
   y="44.470001"
   fill="#9ea660"
   width="3.073"
   height="5.0489998"
   id="rect42" />
			<rect
   x="175.442"
   y="39.514999"
   fill="#9ea660"
   width="3.076"
   height="3.1470001"
   id="rect43" />
		</g>
		
	
<g
   id="g48"
   transform="translate(2,-30)">
	<polygon
   fill="#733822"
   points="16.261,49.52 19.455,42.611 22.709,49.513 25.453,49.51 19.449,36.711 13.517,49.522 "
   id="polygon45" />
	<rect
   x="7.0240002"
   y="37.085999"
   transform="rotate(179.9427,10.77424,38.320587)"
   fill="#733822"
   width="7.5"
   height="2.4690001"
   id="rect45" />
	<rect
   x="7.026"
   y="39.556999"
   fill="#bf8975"
   width="3.0639999"
   height="2.425"
   id="rect46" />
	<rect
   x="7.0320001"
   y="44.497002"
   fill="#bf8975"
   width="3.0639999"
   height="5.0300002"
   id="rect47" />
	<rect
   x="7.0289998"
   y="41.98"
   transform="rotate(179.9427,10.413281,43.237507)"
   fill="#733822"
   width="6.7690001"
   height="2.5150001"
   id="rect48" />
	<polygon
   fill="#bf8975"
   points="17.079,47.752 19.455,42.611 21.878,47.748 "
   id="polygon48" />
</g>
</svg>
