<?xml version="1.0" encoding="UTF-8" standalone="no"?>
<!-- Generator: Adobe Illustrator 16.0.0, SVG Export Plug-In . SVG Version: 6.00 Build 0)  -->

<svg
   version="1.1"
   id="Layer_1"
   x="0px"
   y="0px"
   width="223.2"
   height="82.198006"
   viewBox="0 0 223.19999 82.198007"
   enable-background="new 0 0 240.945 155.905"
   xml:space="preserve"
   xmlns:xlink="http://www.w3.org/1999/xlink"
   xmlns="http://www.w3.org/2000/svg"
   xmlns:svg="http://www.w3.org/2000/svg"><defs
   id="defs48"><mask
     maskUnits="userSpaceOnUse"
     id="mask-powermask-path-effect59"><path
       id="mask-powermask-path-effect59_box"
       style="fill:#ffffff;fill-opacity:1"
       d="M 7.433178,65.182137 H 232.63317 V 150.38014 H 7.433178 Z" /></mask></defs>
<g
   id="g45"
   transform="translate(-8.4331782,-67.182136)"
   mask="url(#mask-powermask-path-effect59)">
	<defs
   id="defs1"><rect
     id="SVGID_1_"
     x="-7.0110002"
     y="-202.00301"
     width="563.76001"
     height="397.681" /></defs>
	<clipPath
   id="SVGID_2_">
		<use
   xlink:href="#SVGID_1_"
   overflow="visible"
   id="use1" />
	</clipPath>
	<g
   clip-path="url(#SVGID_2_)"
   id="g44">
		<defs
   id="defs2"><rect
     id="SVGID_3_"
     x="-1.7309999"
     y="26.958"
     width="240.72"
     height="155.759" /></defs>
		<clipPath
   id="SVGID_4_">
			<use
   xlink:href="#SVGID_3_"
   overflow="visible"
   id="use2" />
		</clipPath>
		
		
		
		
		
		
		
		
		
		
		
		
		
		
		
		
		
		
		
		
		
		
		
		
		<polygon
   clip-path="url(#SVGID_4_)"
   fill="#733822"
   points="89.289,118.52 103.688,118.52 72.249,51.32 41.048,118.52 55.449,118.52 72.249,82.279 "
   id="polygon20"
   d="m 89.289,118.52 h 14.399 l -31.439,-67.2 -31.201,67.2 h 14.401 l 16.8,-36.241 z"
   transform="translate(1.4051781,14.862137)" />
		<path
   x="190.868"
   y="105.557"
   clip-path="url(#SVGID_4_)"
   fill="#3d4025"
   width="39.360001"
   height="12.961"
   id="rect20"
   d="m 190.868,105.557 h 39.36 v 12.961 h -39.36 z"
   transform="translate(1.4051781,14.862137)" />
		<path
   x="190.868"
   y="78.917999"
   clip-path="url(#SVGID_4_)"
   fill="#3d4025"
   width="35.521"
   height="13.199"
   id="rect21"
   d="m 190.868,78.917999 h 35.521 V 92.117 h -35.521 z"
   transform="translate(1.4051781,14.862137)" />
		<path
   x="190.868"
   y="53.237"
   clip-path="url(#SVGID_4_)"
   fill="#3d4025"
   width="39.360001"
   height="12.96"
   id="rect22"
   d="m 190.868,53.237 h 39.36 v 12.96 h -39.36 z"
   transform="translate(1.4051781,14.862137)" />
		<path
   x="7.0279999"
   y="53.237"
   clip-path="url(#SVGID_4_)"
   fill="#733822"
   width="39.360001"
   height="12.96"
   id="rect23"
   d="M 7.0279999,53.237 H 46.388 v 12.96 H 7.0279999 Z"
   transform="translate(1.4051781,14.862137)" />
		<polygon
   clip-path="url(#SVGID_4_)"
   fill="#6d86a6"
   points="108.708,66.197 108.723,118.52 124.775,118.52 124.792,66.197 "
   id="polygon23"
   d="m 108.708,66.197 0.015,52.323 h 16.052 l 0.017,-52.323 z"
   transform="translate(1.4051781,14.862137)" />
		<path
   x="7.0279999"
   y="66.196999"
   clip-path="url(#SVGID_4_)"
   fill="#bf8975"
   width="16.08"
   height="12.721"
   id="rect24"
   d="M 7.0279999,66.196999 H 23.108 V 78.917998 H 7.0279999 Z"
   transform="translate(1.4051781,14.862137)" />
		<path
   x="7.0279999"
   y="92.116997"
   clip-path="url(#SVGID_4_)"
   fill="#bf8975"
   width="16.08"
   height="26.4"
   id="rect25"
   d="M 7.0279999,92.116997 H 23.108 V 118.517 H 7.0279999 Z"
   transform="translate(1.4051781,14.862137)" />
		<polygon
   clip-path="url(#SVGID_4_)"
   fill="#b4c4d9"
   points="108.726,66.197 108.734,53.237 124.795,53.237 124.792,66.197 "
   id="polygon25"
   d="m 108.726,66.197 0.008,-12.96 h 16.061 l -0.003,12.96 z"
   transform="translate(1.4051781,14.862137)" />
		<path
   x="7.0279999"
   y="78.917999"
   clip-path="url(#SVGID_4_)"
   fill="#733822"
   width="35.52"
   height="13.199"
   id="rect26"
   d="M 7.0279999,78.917999 H 42.548 V 92.117 H 7.0279999 Z"
   transform="translate(1.4051781,14.862137)" />
		<path
   clip-path="url(#SVGID_4_)"
   fill="#6d86a6"
   d="m 138.973,130.551 1.47,-3.215 1.462,3.215 z m 4.632,3.736 h 2.618 l -5.751,-12.322 h -0.075 l -5.743,12.322 h 2.61 l 0.769,-1.678 h 4.812 l 0.76,1.678"
   id="path26"
   transform="translate(1.4051781,14.862137)" />
		<path
   clip-path="url(#SVGID_4_)"
   fill="#6d86a6"
   d="m 149.841,124.656 h 1.552 c 0.102,0 0.202,0.012 0.301,0.031 0.197,0.039 0.38,0.113 0.547,0.223 0.168,0.107 0.311,0.244 0.428,0.404 0.116,0.162 0.197,0.344 0.242,0.545 0.022,0.102 0.034,0.205 0.034,0.312 0,0.107 -0.012,0.211 -0.033,0.311 -0.045,0.203 -0.125,0.385 -0.241,0.547 -0.116,0.162 -0.259,0.299 -0.426,0.406 -0.168,0.109 -0.351,0.184 -0.549,0.223 -0.1,0.02 -0.2,0.027 -0.303,0.027 l -1.552,-0.008 z m 6.788,9.631 -3.416,-4.781 c 0.161,-0.057 0.316,-0.127 0.466,-0.211 0.3,-0.17 0.567,-0.383 0.805,-0.643 0.236,-0.258 0.433,-0.551 0.589,-0.877 0.156,-0.328 0.263,-0.678 0.32,-1.051 0.028,-0.186 0.043,-0.375 0.043,-0.568 0,-0.27 -0.028,-0.533 -0.085,-0.789 -0.112,-0.512 -0.317,-0.977 -0.616,-1.393 -0.299,-0.418 -0.668,-0.768 -1.106,-1.051 -0.439,-0.281 -0.926,-0.477 -1.459,-0.582 -0.267,-0.053 -0.54,-0.078 -0.821,-0.078 h -3.924 l 0.008,12.023 h 2.417 v -5.684 l 3.826,5.684 h 2.953"
   id="path27"
   transform="translate(1.4051781,14.862137)" />
		<path
   clip-path="url(#SVGID_4_)"
   fill="#6d86a6"
   d="m 163.544,134.518 c 0.228,0 0.446,-0.012 0.658,-0.035 0.422,-0.049 0.815,-0.139 1.182,-0.27 0.365,-0.131 0.707,-0.295 1.024,-0.492 0.318,-0.197 0.617,-0.418 0.896,-0.664 0.14,-0.123 0.276,-0.25 0.408,-0.381 l -1.387,-1.955 c -0.101,0.1 -0.202,0.193 -0.307,0.285 -0.21,0.182 -0.429,0.348 -0.657,0.494 -0.228,0.146 -0.467,0.27 -0.715,0.367 -0.248,0.097 -0.505,0.164 -0.771,0.199 -0.134,0.018 -0.269,0.027 -0.407,0.027 -0.232,0 -0.464,-0.025 -0.696,-0.076 -0.464,-0.102 -0.901,-0.287 -1.312,-0.561 -0.41,-0.271 -0.763,-0.611 -1.057,-1.018 -0.295,-0.406 -0.5,-0.861 -0.615,-1.363 -0.058,-0.252 -0.087,-0.512 -0.087,-0.779 0,-0.262 0.028,-0.52 0.084,-0.768 0.111,-0.5 0.312,-0.955 0.601,-1.365 0.289,-0.41 0.638,-0.754 1.047,-1.033 0.409,-0.277 0.851,-0.469 1.325,-0.574 0.237,-0.053 0.477,-0.078 0.718,-0.078 0.259,0 0.515,0.029 0.767,0.09 0.504,0.121 0.98,0.342 1.431,0.664 0.225,0.16 0.439,0.342 0.645,0.543 l 1.395,-1.902 c -0.63,-0.607 -1.294,-1.066 -1.992,-1.375 -0.698,-0.311 -1.438,-0.471 -2.222,-0.482 -0.212,0 -0.421,0.012 -0.629,0.035 -0.414,0.043 -0.816,0.129 -1.205,0.254 -0.389,0.125 -0.761,0.285 -1.115,0.482 -0.354,0.195 -0.687,0.424 -0.997,0.682 -0.31,0.258 -0.594,0.543 -0.852,0.855 -0.258,0.312 -0.484,0.645 -0.68,1 -0.195,0.357 -0.355,0.729 -0.48,1.119 -0.124,0.391 -0.208,0.793 -0.253,1.209 -0.021,0.207 -0.032,0.418 -0.032,0.631 0,0.211 0.011,0.42 0.032,0.627 0.044,0.412 0.127,0.814 0.25,1.203 0.124,0.387 0.282,0.758 0.478,1.113 0.194,0.354 0.42,0.686 0.677,0.996 0.258,0.309 0.542,0.594 0.854,0.85 0.311,0.258 0.646,0.484 1.002,0.68 0.357,0.195 0.733,0.355 1.127,0.48 0.395,0.125 0.804,0.209 1.227,0.252 0.208,0.024 0.423,0.034 0.64,0.034 z"
   id="path28"
   transform="translate(1.4051781,14.862137)" />
		<polygon
   clip-path="url(#SVGID_4_)"
   fill="#6d86a6"
   points="178.208,122.264 175.799,122.264 175.799,127.074 171.48,127.074 171.48,122.264 169.071,122.264 169.071,134.287 171.48,134.287 171.48,129.469 175.799,129.469 175.799,134.287 178.208,134.287 "
   id="polygon28"
   d="m 178.208,122.264 h -2.409 v 4.81 h -4.319 v -4.81 h -2.409 v 12.023 h 2.409 v -4.818 h 4.319 v 4.818 h 2.409 z"
   transform="translate(1.4051781,14.862137)" />
		<path
   x="180.297"
   y="122.264"
   clip-path="url(#SVGID_4_)"
   fill="#6d86a6"
   width="2.4170001"
   height="12.023"
   id="rect28"
   d="m 180.297,122.264 h 2.417 v 12.023 h -2.417 z"
   transform="translate(1.4051781,14.862137)" />
		<polygon
   clip-path="url(#SVGID_4_)"
   fill="#6d86a6"
   points="192.41,124.656 192.41,122.264 184.071,122.264 184.071,124.656 187.032,124.656 187.032,134.287 189.457,134.287 189.457,124.656 "
   id="polygon29"
   d="m 192.41,124.656 v -2.392 h -8.339 v 2.392 h 2.961 v 9.631 h 2.425 v -9.631 z"
   transform="translate(1.4051781,14.862137)" />
		<polygon
   clip-path="url(#SVGID_4_)"
   fill="#6d86a6"
   points="196.185,124.643 201.019,124.643 201.019,122.264 193.769,122.264 193.769,134.287 201.019,134.287 201.019,131.885 196.185,131.885 196.185,129.4 200.332,129.4 200.332,126.992 196.185,126.992 "
   id="polygon30"
   d="m 196.185,124.643 h 4.834 v -2.379 h -7.25 v 12.023 h 7.25 v -2.402 h -4.834 V 129.4 h 4.147 v -2.408 h -4.147 z"
   transform="translate(1.4051781,14.862137)" />
		<path
   clip-path="url(#SVGID_4_)"
   fill="#6d86a6"
   d="m 208.56,134.518 c 0.228,0 0.447,-0.012 0.658,-0.035 0.423,-0.049 0.816,-0.139 1.182,-0.27 0.366,-0.131 0.707,-0.295 1.025,-0.492 0.317,-0.197 0.616,-0.418 0.896,-0.664 0.14,-0.123 0.275,-0.25 0.408,-0.381 l -1.388,-1.955 c -0.1,0.1 -0.202,0.193 -0.307,0.285 -0.209,0.182 -0.428,0.348 -0.657,0.494 -0.229,0.146 -0.467,0.27 -0.714,0.367 -0.248,0.098 -0.505,0.164 -0.772,0.199 -0.133,0.018 -0.269,0.027 -0.406,0.027 -0.232,0 -0.465,-0.025 -0.696,-0.076 -0.464,-0.102 -0.901,-0.287 -1.312,-0.561 -0.411,-0.271 -0.763,-0.611 -1.058,-1.018 -0.294,-0.406 -0.499,-0.861 -0.615,-1.363 -0.058,-0.252 -0.087,-0.512 -0.087,-0.779 0,-0.262 0.028,-0.52 0.084,-0.768 0.112,-0.5 0.312,-0.955 0.602,-1.365 0.288,-0.41 0.637,-0.754 1.046,-1.033 0.409,-0.277 0.852,-0.469 1.325,-0.574 0.237,-0.053 0.477,-0.078 0.718,-0.078 0.26,0 0.516,0.029 0.767,0.09 0.504,0.121 0.981,0.342 1.431,0.664 0.225,0.16 0.439,0.342 0.646,0.543 l 1.395,-1.902 c -0.631,-0.607 -1.295,-1.066 -1.992,-1.375 -0.698,-0.311 -1.439,-0.471 -2.223,-0.482 -0.211,0 -0.421,0.012 -0.628,0.035 -0.415,0.043 -0.816,0.129 -1.205,0.254 -0.39,0.125 -0.761,0.285 -1.115,0.482 -0.354,0.195 -0.687,0.424 -0.997,0.682 -0.31,0.258 -0.595,0.543 -0.853,0.855 -0.257,0.312 -0.483,0.645 -0.68,1 -0.195,0.357 -0.355,0.729 -0.479,1.119 -0.125,0.391 -0.209,0.793 -0.253,1.209 -0.022,0.207 -0.033,0.418 -0.033,0.631 0,0.211 0.011,0.42 0.033,0.627 0.043,0.412 0.127,0.814 0.25,1.203 0.123,0.387 0.282,0.758 0.477,1.113 0.194,0.354 0.421,0.686 0.678,0.996 0.257,0.309 0.541,0.594 0.853,0.85 0.312,0.258 0.646,0.484 1.003,0.68 0.356,0.195 0.732,0.355 1.127,0.48 0.395,0.125 0.803,0.209 1.226,0.252 0.209,0.024 0.423,0.034 0.64,0.034 z"
   id="path30"
   transform="translate(1.4051781,14.862137)" />
		<polygon
   clip-path="url(#SVGID_4_)"
   fill="#6d86a6"
   points="221.695,124.656 221.695,122.264 213.356,122.264 213.356,124.656 216.317,124.656 216.317,134.287 218.741,134.287 218.741,124.656 "
   id="polygon31"
   d="m 221.695,124.656 v -2.392 h -8.339 v 2.392 h 2.961 v 9.631 h 2.424 v -9.631 z"
   transform="translate(1.4051781,14.862137)" />
		<polygon
   clip-path="url(#SVGID_4_)"
   fill="#6d86a6"
   points="225.365,124.643 230.199,124.643 230.199,122.264 222.948,122.264 222.948,134.287 230.199,134.287 230.199,131.885 225.365,131.885 225.365,129.4 229.513,129.4 229.513,126.992 225.365,126.992 "
   id="polygon32"
   d="m 225.365,124.643 h 4.834 v -2.379 h -7.251 v 12.023 h 7.251 v -2.402 h -4.834 V 129.4 h 4.148 v -2.408 h -4.148 z"
   transform="translate(1.4051781,14.862137)" />
		<path
   clip-path="url(#SVGID_4_)"
   fill="#3d4025"
   d="m 157.765,82.507 c -0.49,0.097 -0.986,0.147 -1.491,0.152 -0.051,0 -0.101,0 -0.151,0 l -21.538,10e-4 v 9.457 h 16.074 l 17.854,26.4 h 16.011 l -18.93,-26.409 c 0.876,-0.309 1.72,-0.691 2.531,-1.148 1.624,-0.914 3.149,-2.117 4.569,-3.333 1.419,-1.216 2.553,-2.711 3.4,-4.485 0.076,-0.16 0.15,-0.32 0.223,-0.482 0.728,-1.635 1.232,-3.372 1.515,-5.212 0.155,-1.011 0.232,-2.041 0.232,-3.088 0,-1.468 -0.152,-2.896 -0.458,-4.283 -0.292,-1.327 -0.699,-2.595 -1.222,-3.806 -0.571,-1.322 -1.279,-2.574 -2.126,-3.756 -1.621,-2.267 -3.623,-4.166 -6.006,-5.698 -2.383,-1.532 -5.022,-2.585 -7.918,-3.16 -1.447,-0.287 -2.933,-0.431 -4.456,-0.431 l -21.295,0.011 v 12.969 l 21.521,-0.009 c 0.552,0 1.095,0.054 1.631,0.164 1.071,0.186 2.079,0.646 2.99,1.233 0.91,0.588 1.683,1.321 2.316,2.2 0.635,0.879 1.074,1.864 1.317,2.955 0.122,0.545 0.184,1.109 0.184,1.691 0,0.582 -0.061,1.146 -0.182,1.693 -0.241,1.093 -0.678,2.081 -1.309,2.963 -0.631,0.882 -1.4,1.618 -2.31,2.207 -0.907,0.591 -1.9,0.991 -2.976,1.204 z"
   id="path32"
   transform="translate(1.4051781,14.862137)" />
		<path
   x="190.868"
   y="92.116997"
   clip-path="url(#SVGID_4_)"
   fill="#9ea660"
   width="16.08"
   height="13.439"
   id="rect32"
   d="m 190.868,92.116997 h 16.08 V 105.556 h -16.08 z"
   transform="translate(1.4051781,14.862137)" />
		<path
   x="190.868"
   y="66.196999"
   clip-path="url(#SVGID_4_)"
   fill="#9ea660"
   width="16.08"
   height="12.721"
   id="rect33"
   d="m 190.868,66.196999 h 16.08 v 12.720999 h -16.08 z"
   transform="translate(1.4051781,14.862137)" />
		<path
   x="134.584"
   y="92.116997"
   clip-path="url(#SVGID_4_)"
   fill="#9ea660"
   width="16.073999"
   height="26.4"
   id="rect34"
   d="m 134.584,92.116997 h 16.074 V 118.517 h -16.074 z"
   transform="translate(1.4051781,14.862137)" />
		<path
   x="134.584"
   y="66.207001"
   clip-path="url(#SVGID_4_)"
   fill="#9ea660"
   width="16.080999"
   height="16.454"
   id="rect35"
   d="m 134.584,66.207001 h 16.081 v 16.454 h -16.081 z"
   transform="translate(1.4051781,14.862137)" />
		<polygon
   clip-path="url(#SVGID_4_)"
   fill="#bf8975"
   points="84.938,109.249 59.75,109.249 72.249,82.279 "
   id="polygon35"
   d="M 84.938,109.249 H 59.75 l 12.499,-26.97 z"
   transform="translate(1.4051781,14.862137)" />
		
		
	</g>
</g>

</svg>
